<svg width="26" height="22" viewBox="0 0 26 22" fill="none" xmlns="http://www.w3.org/2000/svg">
<path d="M1 9V8.5C0.837731 8.5 0.685553 8.57875 0.59183 8.71121C0.498108 8.84368 0.474498 9.01339 0.528505 9.16641L1 9ZM25 9L25.4715 9.16641C25.5256 9.01339 25.5019 8.84368 25.4082 8.71121C25.3145 8.57875 25.1623 8.5 25 8.5V9ZM20.7647 21V21.5C20.9767 21.5 21.1657 21.3663 21.2362 21.1664L20.7647 21ZM5.2353 21L4.76381 21.1664C4.83436 21.3663 5.02331 21.5 5.2353 21.5V21ZM1 9.5H25V8.5H1V9.5ZM24.5286 8.83359L20.2933 20.8336L21.2362 21.1664L25.4715 9.16641L24.5286 8.83359ZM20.7647 20.5H5.2353V21.5H20.7647V20.5ZM5.7068 20.8336L1.4715 8.83359L0.528505 9.16641L4.76381 21.1664L5.7068 20.8336Z" fill="black"/>
<path d="M17.0002 4.99995C17.0002 2.7908 15.0303 0.999939 12.6002 0.999939C10.1701 0.999939 8.2002 2.7908 8.2002 4.99995" stroke="black" stroke-linecap="round"/>
</svg>
